/* XPM */
static char * donationcoin16_xpm[] = {
"32 32 540 2",
"  	c None",
". 	c #8A8A8B",
"+ 	c #BBBBBB",
"@ 	c #C0C1C2",
"# 	c #AEB0B1",
"$ 	c #AFB0B1",
"% 	c #C0C0C1",
"& 	c #BBBCBC",
"* 	c #7F8082",
"= 	c #A3A4A5",
"- 	c #D8D9DA",
"; 	c #C8C8C9",
"> 	c #ADAEAF",
", 	c #A3A2A3",
"' 	c #ADABAC",
") 	c #AAA8A8",
"! 	c #9A9899",
"~ 	c #A4A3A5",
"{ 	c #BCBDBD",
"] 	c #CCCCCD",
"^ 	c #A0A0A2",
"/ 	c #BABBBD",
"( 	c #DBDCDD",
"_ 	c #D9D9DA",
": 	c #A8A8A8",
"< 	c #908F8F",
"[ 	c #707070",
"} 	c #8B8A8A",
"| 	c #A5A3A4",
"1 	c #A5A4A4",
"2 	c #9F9D9E",
"3 	c #6E6C6D",
"4 	c #7D7D7D",
"5 	c #B5B4B5",
"6 	c #BABBBB",
"7 	c #C8C8C8",
"8 	c #B0B2B3",
"9 	c #9D9EA0",
"0 	c #DCDDDE",
"a 	c #F1F0F0",
"b 	c #BCBCBC",
"c 	c #979797",
"d 	c #929192",
"e 	c #3C3B3B",
"f 	c #737373",
"g 	c #959595",
"h 	c #A5A5A5",
"i 	c #A6A4A5",
"j 	c #858484",
"k 	c #919091",
"l 	c #666666",
"m 	c #313030",
"n 	c #7B7B7B",
"o 	c #929392",
"p 	c #AFAEAF",
"q 	c #909293",
"r 	c #B9BABB",
"s 	c #D6D7D7",
"t 	c #FFFFFF",
"u 	c #585858",
"v 	c #A4A4A4",
"w 	c #999999",
"x 	c #8A8A8A",
"y 	c #909090",
"z 	c #A6A7A7",
"A 	c #9E9E9D",
"B 	c #919393",
"C 	c #8E9298",
"D 	c #959393",
"E 	c #949394",
"F 	c #706F6F",
"G 	c #919191",
"H 	c #A0A0A0",
"I 	c #5A5A5A",
"J 	c #B1B1B2",
"K 	c #AFB1B3",
"L 	c #DEDEE0",
"M 	c #F5F5F5",
"N 	c #ACACAC",
"O 	c #B5B5B5",
"P 	c #B4B4B4",
"Q 	c #DFDEDE",
"R 	c #C7C7C7",
"S 	c #B3C1C1",
"T 	c #B63B3D",
"U 	c #B22728",
"V 	c #ACA4A5",
"W 	c #B6B4B5",
"X 	c #C6C5C6",
"Y 	c #9A9A9A",
"Z 	c #626162",
"` 	c #696869",
" .	c #939393",
"..	c #ACABAC",
"+.	c #D2D2D4",
"@.	c #F4F3F3",
"#.	c #5A595A",
"$.	c #ABABAB",
"%.	c #D1D1D1",
"&.	c #C9C8C8",
"*.	c #E7E7E7",
"=.	c #D8D8D7",
"-.	c #C7C6C7",
";.	c #BA8B8B",
">.	c #CA5252",
",.	c #B6B4B4",
"'.	c #C1C1C1",
").	c #959494",
"!.	c #808080",
"~.	c #6D6D6D",
"{.	c #4F4F4F",
"].	c #BAB7B8",
"^.	c #AAAAAB",
"/.	c #8C8D8E",
"(.	c #D6D7D8",
"_.	c #595959",
":.	c #515151",
"<.	c #E2E2E2",
"[.	c #FEFEFE",
"}.	c #EDEDED",
"|.	c #E0E0E0",
"1.	c #CBCBCB",
"2.	c #B6C0C0",
"3.	c #B71718",
"4.	c #B10303",
"5.	c #B39495",
"6.	c #B6B6B6",
"7.	c #C0C0C0",
"8.	c #BFBFBF",
"9.	c #BBBCBB",
"0.	c #ABA9AA",
"a.	c #8A8989",
"b.	c #818081",
"c.	c #484748",
"d.	c #918F90",
"e.	c #C3C5C6",
"f.	c #BABCBD",
"g.	c #D5D5D5",
"h.	c #757575",
"i.	c #B1B1B1",
"j.	c #E1E1E1",
"k.	c #C3C3C3",
"l.	c #6E6E6E",
"m.	c #F9FAFA",
"n.	c #D3D3D2",
"o.	c #D1D3D3",
"p.	c #ADBFBF",
"q.	c #A1BABA",
"r.	c #C0C2C3",
"s.	c #BFBDBD",
"t.	c #B9B9B8",
"u.	c #878787",
"v.	c #9C9B9C",
"w.	c #9C9A9B",
"x.	c #767575",
"y.	c #5D5C5C",
"z.	c #757474",
"A.	c #A6A5A5",
"B.	c #A8A9AA",
"C.	c #D7D6D7",
"D.	c #BDBDBD",
"E.	c #BABABA",
"F.	c #FAFAFA",
"G.	c #777777",
"H.	c #868686",
"I.	c #CADBDB",
"J.	c #915353",
"K.	c #910000",
"L.	c #BC0000",
"M.	c #C10000",
"N.	c #980000",
"O.	c #8F3939",
"P.	c #8A9A9A",
"Q.	c #C4C3C3",
"R.	c #8D8C8D",
"S.	c #908E8F",
"T.	c #C8C7C8",
"U.	c #B5B3B4",
"V.	c #797878",
"W.	c #A5A7A8",
"X.	c #BCBCBD",
"Y.	c #555554",
"Z.	c #787878",
"`.	c #E3E3E3",
" +	c #CCCCCC",
".+	c #949494",
"++	c #E2E1E1",
"@+	c #9D9595",
"#+	c #C50000",
"$+	c #FF0000",
"%+	c #FF0D0D",
"&+	c #FF1D1D",
"*+	c #FF1414",
"=+	c #E40000",
"-+	c #654343",
";+	c #B9B8B8",
">+	c #A1A1A0",
",+	c #B9B7B8",
"'+	c #BDBBBC",
")+	c #9A999A",
"!+	c #3D3D3D",
"~+	c #C4C2C3",
"{+	c #9C9C9C",
"]+	c #A4A5A6",
"^+	c #D2D3D3",
"/+	c #A2A2A2",
"(+	c #BCBBBC",
"_+	c #C6C6C6",
":+	c #CECECE",
"<+	c #DCDCDC",
"[+	c #EFEEEE",
"}+	c #9B9393",
"|+	c #F30000",
"1+	c #FE0000",
"2+	c #FF7777",
"3+	c #FFB1B1",
"4+	c #5E3636",
"5+	c #C0BDBE",
"6+	c #B7B5B6",
"7+	c #B7B6B5",
"8+	c #919090",
"9+	c #848484",
"0+	c #898988",
"a+	c #BDBEBF",
"b+	c #8A8B8C",
"c+	c #BEBEBF",
"d+	c #5F5F5F",
"e+	c #838383",
"f+	c #C4C5C4",
"g+	c #C6C5C5",
"h+	c #B0C1C1",
"i+	c #C60000",
"j+	c #FF7171",
"k+	c #FFAAAA",
"l+	c #F50000",
"m+	c #788080",
"n+	c #B6B5B5",
"o+	c #B7B6B6",
"p+	c #B6B7B7",
"q+	c #C3C2C2",
"r+	c #222222",
"s+	c #6D6E6E",
"t+	c #C6C5C7",
"u+	c #A4A3A4",
"v+	c #686868",
"w+	c #969696",
"x+	c #B4B2B3",
"y+	c #854848",
"z+	c #FF7070",
"A+	c #FFA9A9",
"B+	c #881717",
"C+	c #C2C1C1",
"D+	c #B7B6B7",
"E+	c #BBBABA",
"F+	c #A1A0A1",
"G+	c #676667",
"H+	c #B3B4B4",
"I+	c #B9BBBB",
"J+	c #C1C2C3",
"K+	c #9D9B9C",
"L+	c #555455",
"M+	c #8C8A8B",
"N+	c #989797",
"O+	c #A7AEB0",
"P+	c #BF5F60",
"Q+	c #A99D9F",
"R+	c #B26767",
"S+	c #721B1B",
"T+	c #EE8989",
"U+	c #FFC5C5",
"V+	c #A5A6A6",
"W+	c #FFE7E7",
"X+	c #B75A5A",
"Y+	c #F18D8D",
"Z+	c #AD5A5A",
"`+	c #FF2323",
" @	c #A8B2B1",
".@	c #AFB3B3",
"+@	c #C46364",
"@@	c #AFB1B1",
"#@	c #9D9C9C",
"$@	c #9B9B9B",
"%@	c #B7B7B7",
"&@	c #AFADAD",
"*@	c #595859",
"=@	c #969697",
"-@	c #A8393A",
";@	c #AC0102",
">@	c #A5BBBC",
",@	c #516565",
"'@	c #E8E8E8",
")@	c #6B6B6B",
"!@	c #B0B0B0",
"~@	c #9D9D9D",
"{@	c #696969",
"]@	c #636C6C",
"^@	c #FF3D3D",
"/@	c #7D9999",
"(@	c #A61E1F",
"_@	c #A01819",
":@	c #9EA4A4",
"<@	c #CFCECE",
"[@	c #C1C1C2",
"}@	c #9E9D9D",
"|@	c #B5B7B8",
"1@	c #AEAFB0",
"2@	c #B4B3B3",
"3@	c #5F5E5F",
"4@	c #7F7E7E",
"5@	c #AD3D3E",
"6@	c #AE0305",
"7@	c #ACC2C2",
"8@	c #C00000",
"9@	c #C0BFBF",
"0@	c #525252",
"a@	c #383838",
"b@	c #717171",
"c@	c #C2C2C2",
"d@	c #646464",
"e@	c #DBDBDB",
"f@	c #0E1717",
"g@	c #7C9797",
"h@	c #AC2627",
"i@	c #A41D1E",
"j@	c #9FA5A5",
"k@	c #8D8D8D",
"l@	c #8F8F8F",
"m@	c #B6B6B8",
"n@	c #BFC0C1",
"o@	c #A9A8A8",
"p@	c #5E5E5E",
"q@	c #8B8B8B",
"r@	c #9F9F9F",
"s@	c #B8C4C4",
"t@	c #C17576",
"u@	c #B4B5B5",
"v@	c #CFD2D2",
"w@	c #970000",
"x@	c #DC6A6A",
"y@	c #C44848",
"z@	c #FF8B8B",
"A@	c #FEB6B6",
"B@	c #E5E6E6",
"C@	c #FFD3D3",
"D@	c #DA5B5B",
"E@	c #FF8686",
"F@	c #D86060",
"G@	c #FF1A1A",
"H@	c #D60000",
"I@	c #A0ADAD",
"J@	c #B6BFBF",
"K@	c #C37474",
"L@	c #B4BCBC",
"M@	c #7E7E7E",
"N@	c #616161",
"O@	c #ABABAC",
"P@	c #B8B8B7",
"Q@	c #ABABAD",
"R@	c #6C6C6C",
"S@	c #626262",
"T@	c #BBBBBA",
"U@	c #BEBCBC",
"V@	c #8D3738",
"W@	c #900607",
"X@	c #CDCECE",
"Y@	c #C0C1C0",
"Z@	c #C4C4C4",
"`@	c #A1A1A1",
" #	c #4B4B4B",
".#	c #BABABB",
"+#	c #B6B6B7",
"@#	c #666565",
"##	c #7E7E7F",
"$#	c #B8B8B8",
"%#	c #849394",
"&#	c #6C6B6B",
"*#	c #BAB8B9",
"=#	c #BAB9BA",
"-#	c #8C8C8C",
";#	c #D2D2D2",
">#	c #CBCCCC",
",#	c #555555",
"'#	c #828181",
")#	c #929292",
"!#	c #C0BEBE",
"~#	c #674545",
"{#	c #FF7D7D",
"]#	c #FFB7B7",
"^#	c #FF0101",
"/#	c #6A2020",
"(#	c #C3C1C2",
"_#	c #B4B1B2",
":#	c #949393",
"<#	c #C1C0C0",
"[#	c #3D3C3C",
"}#	c #B8B9BA",
"|#	c #A0A2A3",
"1#	c #565656",
"2#	c #BFBEBE",
"3#	c #ABAAAA",
"4#	c #8E8E8E",
"5#	c #BEBBBC",
"6#	c #5D3B3C",
"7#	c #702626",
"8#	c #E2E6E6",
"9#	c #A3A4A6",
"0#	c #B1B2B3",
"a#	c #B3B1B1",
"b#	c #BCBABB",
"c#	c #605F60",
"d#	c #B1AFB1",
"e#	c #ABACAC",
"f#	c #C2C3C3",
"g#	c #AEADAD",
"h#	c #545455",
"i#	c #BDBCBC",
"j#	c #777776",
"k#	c #C7C5C5",
"l#	c #7C8484",
"m#	c #891818",
"n#	c #910707",
"o#	c #FBFBFB",
"p#	c #B2B3B5",
"q#	c #999C9F",
"r#	c #AEAEAE",
"s#	c #8F8E8E",
"t#	c #676666",
"u#	c #747373",
"v#	c #C7C7C8",
"w#	c #545454",
"x#	c #929091",
"y#	c #818080",
"z#	c #A7A6A7",
"A#	c #A5A4A5",
"B#	c #7A7A7B",
"C#	c #CDCDCC",
"D#	c #A4ADAE",
"E#	c #718989",
"F#	c #728D8D",
"G#	c #9AA7A7",
"H#	c #D5D6D6",
"I#	c #D1D1D2",
"J#	c #C0C1C3",
"K#	c #ADAFB1",
"L#	c #9EA1A4",
"M#	c #B1B0B0",
"N#	c #525353",
"O#	c #9B9A9A",
"P#	c #A5A6A8",
"Q#	c #C4C6C7",
"R#	c #989697",
"S#	c #5C5D5D",
"T#	c #8E8D8D",
"U#	c #878586",
"V#	c #BDBBBB",
"W#	c #BEBDBD",
"X#	c #AEBABB",
"Y#	c #B03536",
"Z#	c #AC2122",
"`#	c #B1AAAB",
" $	c #CCCBCB",
".$	c #DADADA",
"+$	c #ECECEC",
"@$	c #E1E0E0",
"#$	c #767676",
"$$	c #CDCDCD",
"%$	c #BCBDBF",
"&$	c #919293",
"*$	c #939293",
"=$	c #484747",
"-$	c #999898",
";$	c #AA8283",
">$	c #C15656",
",$	c #C8C7C7",
"'$	c #E9E9E9",
")$	c #B9B9B9",
"!$	c #E5E5E5",
"~$	c #B2B2B2",
"{$	c #A3A3A3",
"]$	c #BDBDBE",
"^$	c #818282",
"/$	c #C1BFC1",
"($	c #616160",
"_$	c #989898",
":$	c #A8B2B3",
"<$	c #A81B1B",
"[$	c #9F0404",
"}$	c #B1999A",
"|$	c #D3D3D3",
"1$	c #A2A1A1",
"2$	c #818181",
"3$	c #656565",
"4$	c #D0D0D1",
"5$	c #96989A",
"6$	c #AEAFB1",
"7$	c #ADADAE",
"8$	c #4F4F4E",
"9$	c #BCBBBB",
"0$	c #939193",
"a$	c #93989A",
"b$	c #94A0A1",
"c$	c #969494",
"d$	c #A8A7A8",
"e$	c #969796",
"f$	c #9E9E9E",
"g$	c #727272",
"h$	c #C7C6C6",
"i$	c #CCCDCE",
"j$	c #949698",
"k$	c #C4C5C6",
"l$	c #A6A6A7",
"m$	c #505050",
"n$	c #676566",
"o$	c #959394",
"p$	c #817F80",
"q$	c #7F7F7F",
"r$	c #434243",
"s$	c #616162",
"t$	c #6B6A6A",
"u$	c #303030",
"v$	c #A7A7A7",
"w$	c #808081",
"x$	c #C5C6C6",
"y$	c #A09F9F",
"z$	c #4C4B4B",
"A$	c #414242",
"B$	c #575556",
"C$	c #727171",
"D$	c #858585",
"E$	c #C4C3C4",
"F$	c #D2D2D3",
"G$	c #A2A4A4",
"H$	c #A4A5A5",
"I$	c #A9A9AA",
"J$	c #979596",
"K$	c #C9C9C9",
"L$	c #BABBBC",
"M$	c #A9AAAB",
"N$	c #B7B7B8",
"O$	c #B7B9BA",
"                        . + @ # $ % &                           ",
"                  * = - ; > , ' ) ! ~ { ] ^                     ",
"                / ( _ : < [ } | 1 2 3 4 5 6 7 8                 ",
"            9 0 a b c d e f g h i j k l m n o p ; q             ",
"          r s t u v w x y z A B C D E F G c H I A J K           ",
"        r L M t l N O P Q R S T U V W X Y Y Z ` w  ...#         ",
"      9 +.@.#.$.%.&.t *.=.-.;.    >.,.b '.X ).!.~.{.].^./.      ",
"      (.t _.:.*.<.t [.}.|.1.2.3.4.5.6.7.8.+ 9.0.a.b.c.d.e.      ",
"    f.g.l h.i.j.k.l.R m.*.n.o.p.q.r.s.7.b t.u.v.w.x.y.z.A.B.    ",
"  * 1.C.D.w E.F.G.  H.t I.J.K.L.M.N.O.P.Q.Y     R.S.T.U.V.-.    ",
"  W.X.Y.Z.0.j.`. +.+++@+#+$+%+&+&+*+$+=+-+;+w >+,+'+)+!+~+{+]+  ",
"  ^+/+7 (+{+_+:+<+[+}+|+1+$+2+t t 3+$+$+$+4+5+6+5 7+8+9+[ 0+a+  ",
"b+c+I d+e+f+(+7.g+h+i+1+$+$+j+t t k+$+$+$+l+m+n+o+p+q+H.r+s+t+  ",
"& u+).v+w+W x+O E.y+$+$+$+$+z+t t A+$+$+$+$+B+C+D+o+E+F+d+G+H+I+",
"J+K+L+M+N+O+P+Q+'.K.$+R+S+T+U+V+9+W+X+Y+Z+`+#+ @.@+@@@#@Y 4 $@%@",
"$ &@*@L+=@-@  ;@>@L.$+,@t !+'@)@!@~@z.{@]@^@$+/@(@  _@:@<@[@}@|@",
"1@2@3@4@)+5@  6@7@8@$+,@9@0@M a@b@c@d@e@f@^@$+g@h@  i@j@k@{.l@m@",
"n@o@p@q@r@s@t@u@v@w@$+x@y@z@A@B@g.C@D@E@F@G@H@I@J@K@L@r@M@N@O@P@",
"+ Q@R@S@v 7.+ T@U@V@$+$+$+$+j+t t k+$+$+$+$+W@X@7.Y@Z@`@)@ #.#+#",
"  [@w+@###g+$#%@o+%#=+$+$+$+j+t t k+$+$+$+$+&#*#=#(+1.-#g.;#R   ",
"  >#o@,#'#)#p+6.%@!#~#$+$+$+{#t t ]#$+$+^#/#(#_#%@$#:#<#[#r@}#  ",
"  |#u@1#b ).2#%@3#4#5#6#l+$+$+$+$+$+$+$+7#8#9#0#a#b#! c#L+d#e#  ",
"    f#g#v h#).i#j#  x k#l#m##+$+$+H@n#!.o#p#  q#r#l@s#t#u#v#    ",
"    0#$.w#x#y#z#A#B#N ;+b C#D#E#F#G#H#I#`.J#K#L#n.M#N#G+O#P#    ",
"      Q#R#S#T#U#A.V#P@E+8.W#X#Y#Z#`#c@ $.$+$ +@$g.l@#$$$%$      ",
"      &$1@*$=$[ -$G '.b '.+ ;$    >$9@,$;#'$)$r#!$~${$]$^$      ",
"        8 $./${.W#($c _$:+E+:$<$[$}$'.|$1$!@q@2$3$t 4$5$        ",
"          6$7$q+8$9$c G g r@0$a$b$c$d$e$o+f$c g$h$i$j$          ",
"            /.k$l$f m$E.w {.n$o$p$q$r$s$t$u$v$% Q#w$            ",
"                B.x$i.h y$~.z$A$B$L+C$)#D$E$F$G$                ",
"                    H$]$Z@I$*$J$}@*$H+K$L$M$                    ",
"                          r N$O$}#t.m@                          "};
